<svg width="2988" height="665" viewBox="0 0 2988 665" fill="none" xmlns="http://www.w3.org/2000/svg">
<path d="M195.118 664.102C163.911 664.102 132.558 661.623 101.059 656.665C69.5597 651.707 39.3732 644.561 10.4992 635.228L10.4992 572.23C40.5399 582.147 71.7471 589.73 104.121 594.98C136.787 599.938 167.556 602.417 196.43 602.417C314.843 602.417 374.049 562.314 374.049 482.108C374.049 459.943 369.237 441.714 359.612 427.423C349.988 412.84 334.676 400.882 313.676 391.549C292.969 381.924 264.678 373.612 228.804 366.612L189.431 359.175C123.808 346.342 75.8303 325.635 45.498 297.052C15.1657 268.178 -0.000404255 229.825 -0.000404255 181.994C-0.000404255 144.078 9.47844 111.559 28.4361 84.4346C47.3938 57.3106 75.6845 36.4571 113.308 21.8743C151.224 7.29144 197.889 2.95402e-05 253.303 2.95402e-05C312.51 2.95402e-05 367.779 7.58311 419.11 22.7493V85.7471C366.612 69.706 311.489 61.6854 253.741 61.6854C193.368 61.6854 148.453 71.7476 118.996 91.8719C89.8298 111.996 75.247 141.016 75.247 178.931C75.247 200.806 79.476 219.034 87.9341 233.617C96.3921 248.2 110.246 260.304 129.495 269.928C148.744 279.553 174.848 287.719 207.805 294.427L247.179 301.865C295.302 311.198 334.092 323.739 363.55 339.488C393.299 355.238 414.881 374.487 428.297 397.236C442.005 419.986 448.859 447.11 448.859 478.609C448.859 517.691 438.943 551.231 419.11 579.23C399.278 606.938 370.258 628.083 332.051 642.665C294.135 656.957 248.491 664.102 195.118 664.102ZM574.39 20.1243C607.639 13.7079 639.138 9.04141 668.887 6.12484C698.927 2.91661 730.572 1.31249 763.821 1.31249C856.859 1.31249 926.857 19.2494 973.814 55.1232C1021.06 90.7053 1044.69 146.12 1044.69 221.367C1044.69 294.573 1020.77 349.988 972.939 387.612C925.399 424.944 851.755 443.61 752.009 443.61C722.552 443.61 688.282 442.006 649.2 438.797V655.79H574.39L574.39 20.1243ZM752.446 385.862C804.361 385.862 846.36 379.883 878.442 367.925C910.524 355.967 933.857 338.03 948.44 314.114C963.314 289.907 970.751 259.137 970.751 221.805C970.751 165.807 954.127 124.683 920.878 98.4342C887.629 72.185 836.881 59.0605 768.633 59.0605C725.76 59.0605 685.949 62.4145 649.2 69.1226L649.2 379.3C682.449 383.674 716.864 385.862 752.446 385.862ZM1172.51 655.79L1172.51 8.31227H1247.32L1247.32 655.79H1172.51ZM1718.3 664.102C1613.3 664.102 1531.78 637.561 1473.74 584.48C1415.99 531.398 1387.12 447.693 1387.12 333.364C1387.12 258.991 1400.54 197.014 1427.37 147.432C1454.2 97.8508 1492.7 60.9563 1542.87 36.7488C1593.32 12.2496 1654.13 2.95402e-05 1725.3 2.95402e-05C1755.05 2.95402e-05 1782.9 1.74996 1808.86 5.24983C1834.81 8.74974 1861.06 14.1454 1887.6 21.4368V85.3096C1836.56 71.0184 1783.63 63.8728 1728.8 63.8728C1642.17 63.8728 1576.7 85.4554 1532.37 128.621C1488.03 171.494 1465.87 239.158 1465.87 331.614C1465.87 426.694 1487.74 495.233 1531.49 537.232C1575.53 579.23 1639.11 600.229 1722.23 600.229C1751.4 600.229 1778.96 598.188 1804.92 594.105C1831.17 590.021 1858.73 583.313 1887.6 573.98V637.853C1836.27 655.353 1779.84 664.102 1718.3 664.102ZM2072.3 595.417L2453.78 595.417V655.79L1997.93 655.79L1997.93 8.31227L2449.41 8.31227V68.6852L2072.3 68.6852V293.552H2404.79V353.488H2072.3V595.417ZM2733.73 664.102C2702.52 664.102 2671.17 661.623 2639.67 656.665C2608.17 651.707 2577.98 644.561 2549.11 635.228V572.23C2579.15 582.147 2610.36 589.73 2642.73 594.98C2675.4 599.938 2706.17 602.417 2735.04 602.417C2853.45 602.417 2912.66 562.314 2912.66 482.108C2912.66 459.943 2907.85 441.714 2898.22 427.423C2888.6 412.84 2873.28 400.882 2852.29 391.549C2831.58 381.924 2803.29 373.612 2767.41 366.612L2728.04 359.175C2662.42 346.342 2614.44 325.635 2584.11 297.052C2553.77 268.178 2538.61 229.825 2538.61 181.994C2538.61 144.078 2548.09 111.559 2567.05 84.4346C2586 57.3106 2614.29 36.4571 2651.92 21.8743C2689.83 7.29144 2736.5 2.95402e-05 2791.91 2.95402e-05C2851.12 2.95402e-05 2906.39 7.58311 2957.72 22.7493V85.7471C2905.22 69.706 2850.1 61.6854 2792.35 61.6854C2731.98 61.6854 2687.06 71.7476 2657.6 91.8719C2628.44 111.996 2613.86 141.016 2613.86 178.931C2613.86 200.806 2618.08 219.034 2626.54 233.617C2635 248.2 2648.85 260.304 2668.1 269.928C2687.35 279.553 2713.46 287.719 2746.41 294.427L2785.79 301.865C2833.91 311.198 2872.7 323.739 2902.16 339.488C2931.91 355.238 2953.49 374.487 2966.91 397.236C2980.61 419.986 2987.47 447.11 2987.47 478.609C2987.47 517.691 2977.55 551.231 2957.72 579.23C2937.89 606.938 2908.87 628.083 2870.66 642.665C2832.74 656.957 2787.1 664.102 2733.73 664.102Z" fill="url(#paint0_linear_75_3)"/>
<defs>
<linearGradient id="paint0_linear_75_3" x1="1494.25" y1="-45.6993" x2="1494.25" y2="616.207" gradientUnits="userSpaceOnUse">
<stop stop-color="#D3D3D3"/>
<stop offset="1" stop-color="#6D6D6D" stop-opacity="0"/>
</linearGradient>
</defs>
</svg>
